<svg xmlns="http://www.w3.org/2000/svg" viewBox="0 0 905.62 867.89"><defs><style>.cls-1{isolation:isolate;}.cls-2{fill:#aadeff;stroke:#008dbc;stroke-miterlimit:10;stroke-width:18px;}.cls-10,.cls-11,.cls-12,.cls-13,.cls-14,.cls-15,.cls-16,.cls-17,.cls-18,.cls-19,.cls-2,.cls-20,.cls-21,.cls-22,.cls-23,.cls-24,.cls-25,.cls-26,.cls-27,.cls-28,.cls-29,.cls-3,.cls-30,.cls-31,.cls-32,.cls-33,.cls-34,.cls-35,.cls-36,.cls-37,.cls-38,.cls-39,.cls-4,.cls-40,.cls-41,.cls-42,.cls-43,.cls-44,.cls-45,.cls-46,.cls-47,.cls-48,.cls-49,.cls-5,.cls-50,.cls-51,.cls-52,.cls-53,.cls-54,.cls-55,.cls-56,.cls-57,.cls-58,.cls-59,.cls-60,.cls-61,.cls-62,.cls-63,.cls-64,.cls-65,.cls-66,.cls-67,.cls-68,.cls-69,.cls-7,.cls-70,.cls-71,.cls-72,.cls-73,.cls-74,.cls-8,.cls-9{mix-blend-mode:darken;}.cls-3,.cls-4{font-size:108.23px;}.cls-3{fill:#999;}.cls-10,.cls-3,.cls-4,.cls-7,.cls-73,.cls-74,.cls-8,.cls-9{font-family:LucidaSans-DemiItalic, Lucida Sans;font-weight:300;font-style:italic;}.cls-4,.cls-74{fill:#333;}.cls-6{fill:#0b3a50;}.cls-10,.cls-7,.cls-8,.cls-9{font-size:20.62px;}.cls-7{fill:#f7931e;}.cls-8{fill:#009245;}.cls-9{fill:#3fa0ff;}.cls-10{fill:#d4000b;}.cls-11{fill:#233655;}.cls-12{fill:#13203e;}.cls-13{fill:#dd8852;}.cls-14{fill:#243856;}.cls-15{fill:#de8752;}.cls-16{fill:#273a58;}.cls-17{fill:#1a2a46;}.cls-18{fill:#ca6c4a;}.cls-19{fill:#4c6883;}.cls-20{fill:#ca6c46;}.cls-21{fill:#14203d;}.cls-22{fill:#243756;}.cls-23{fill:#233250;}.cls-24{fill:#273756;}.cls-25{fill:#dc8650;}.cls-26{fill:#263855;}.cls-27{fill:#253957;}.cls-28{fill:#405774;}.cls-29{fill:#253450;}.cls-30{fill:#c86c48;}.cls-31{fill:#4a6481;}.cls-32{fill:#263553;}.cls-33{fill:#e1dcc9;}.cls-34{fill:#283a57;}.cls-35{fill:#243553;}.cls-36{fill:#da8853;}.cls-37{fill:#db8954;}.cls-38{fill:#779cb6;}.cls-39{fill:#c36d4d;}.cls-40{fill:#759bb3;}.cls-41{fill:#213454;}.cls-42{fill:#52718f;}.cls-43{fill:#1e2e4c;}.cls-44{fill:#5a7995;}.cls-45{fill:#d38456;}.cls-46{fill:#5a7b98;}.cls-47{fill:#cb6c44;}.cls-48{fill:#d98551;}.cls-49{fill:#c56a47;}.cls-50{fill:#b97255;}.cls-51{fill:#c76a46;}.cls-52{fill:#6385a1;}.cls-53{fill:#16203a;}.cls-54{fill:#5f5e67;}.cls-55{fill:#141f3b;}.cls-56{fill:#152141;}.cls-57{fill:#e0dbc7;}.cls-58{fill:#e1ddc9;}.cls-59{fill:#dfdbca;}.cls-60{fill:#14213d;}.cls-61{fill:#172542;}.cls-62{fill:#d5cebb;}.cls-63{fill:#435772;}.cls-64{fill:#d98752;}.cls-65{fill:#e2dac5;}.cls-66{fill:#261c31;}.cls-67{fill:#dad0be;}.cls-68{fill:#372e36;}.cls-69{fill:#d7ccbe;}.cls-70{fill:#ca6b48;}.cls-71{fill:#1b2a44;}.cls-72{fill:#415673;}.cls-73,.cls-74{font-size:60px;}.cls-73{fill:gray;}</style></defs><g class="cls-1"><g id="Capa_1" data-name="Capa 1"><polygon class="cls-2" points="776.05 209 776.84 622.5 417.97 837.38 58.31 638.76 57.52 225.26 416.39 10.38 776.05 209"/><text class="cls-3" transform="translate(196.37 678.03) scale(1.02 1)">PERREO</text><text class="cls-4" transform="translate(191.23 669.02) scale(1.02 1)">PERREO</text><text class="cls-5" x="-403.45" y="-1025.62"/><g class="cls-5"><path class="cls-6" d="M551.2,1506.45a1.87,1.87,0,0,0-1.79.84c-1.67,2.19-1.35,3.65,1.79,4.08l15.25,0c.39,4.62-1.64,9.15-.65,13.8-3,2.08-7-.23-10.07,1.73-1.25.82-3.12,1.21-2.35,3.31.71,1.94,2.39,1.65,4,1.65,2.68,0,5.36,0,8,0,1.29,0,2.82.23,3-1.58,2.55-3.17,4.92-6.47,7.66-9.48,9.7-10.64,18.6-21.75,25.91-33.93,4.7-7.84,5.34-16.05,3.11-24.44-1.29-4.88-2.34-4.89-7-2.6-2.4,1.17-3.31,3.47-5.3,4.88a17.16,17.16,0,0,0-10,3.22,20.16,20.16,0,0,0,8.8,1.62c1.22,2.72,2.52,5.41,3.63,8.16,1.76,4.35,1,5.88-3.68,8.32l-25.35-.14c-1.16,0-2.41-.17-3.2.94-3.35,2.48-.94,3.19,1.43,3.21,7.61.08,15.23.5,22.83-.22l-.79,1H564.8v1h20c-4.58,5.59-10.45,10.09-15.64,15.16-.18-.36-.35-1-.56-1C562.78,1505.64,557,1504.85,551.2,1506.45Zm35.14,67.16.9,0c0,2.75-1.86,4.74-3.48,6.81-3.07,3.91-7.84,6.15-11.41,9.57-2.43,2.32-1.42,4.48.46,6.51s3.7,1.1,5.43-.21a78.32,78.32,0,0,0,10-9.73c7.45-8,8.69-16.9,3.26-26s-11.76-18.14-17.75-27.14c-.38-.58-.93-1.5-2.25-1.11-2.36,4.19-4.22,8.58-4.16,13.47-2,.21-5.25-1-5.25,2.08s3.26,1.86,5.27,2.13c.3,0,.6,0,.89.06a111.94,111.94,0,0,1,16.42,17.83c-5.17.05-10.34,0-15.5.18-2.1.08-4.44-.86-6.27.9-.47,1-2.6,2-.32,3.23.73,1.56,2.23,1.54,3.73,1.54l18.13-.09ZM1067.81,1506c-.22,0-.38.67-.57,1-5.19-5.07-11-9.57-15.63-15.16h20v-1H1050l-.8-1c7.61.72,15.23.3,22.84.22,2.36,0,4.78-.73,1.42-3.21-.78-1.11-2-.94-3.2-.94l-25.35.14c-4.71-2.44-5.43-4-3.67-8.32,1.11-2.75,2.41-5.44,3.63-8.16a20.12,20.12,0,0,0,8.79-1.62c-3.25-2.1-6.37-3.31-10-3.22-2-1.41-2.91-3.71-5.31-4.88-4.66-2.29-5.71-2.28-7,2.6-2.22,8.39-1.59,16.6,3.12,24.44,7.3,12.18,16.21,23.29,25.9,33.93,2.75,3,5.12,6.31,7.66,9.48.19,1.81,1.71,1.56,3,1.58,2.68,0,5.37,0,8,0,1.6,0,3.27.29,4-1.65.78-2.1-1.09-2.49-2.35-3.31-3.07-2-7,.35-10.06-1.73,1-4.65-1-9.18-.66-13.8l15.25,0c3.14-.43,3.46-1.89,1.79-4.08a1.85,1.85,0,0,0-1.79-.84C1079.44,1504.85,1073.62,1505.64,1067.81,1506Zm-15.89,67.6,18.12.09c1.5,0,3,0,3.73-1.54,2.29-1.27.16-2.18-.32-3.23-1.82-1.76-4.17-.82-6.26-.9-5.16-.18-10.33-.13-15.5-.18A112.34,112.34,0,0,1,1068.1,1550c.3,0,.6,0,.89-.06,2-.27,5.27.92,5.28-2.13s-3.23-1.87-5.25-2.08c0-4.89-1.81-9.28-4.16-13.47-1.33-.39-1.87.53-2.26,1.11-6,9-12.25,17.88-17.75,27.14s-4.18,18,3.27,26a77.67,77.67,0,0,0,10,9.73c1.72,1.31,3.58,2.22,5.43.21s2.88-4.19.46-6.51c-3.58-3.42-8.34-5.66-11.41-9.57-1.62-2.07-3.46-4.06-3.49-6.81l.9,0Z" transform="translate(-403.45 -1025.62)"/></g><text class="cls-5" x="-403.45" y="-1025.62"/><text x="-403.45" y="-1025.62"/><text class="cls-7" transform="translate(158.12 449.32) scale(1.02 1)">U</text><text class="cls-8" transform="translate(131.95 470.49) scale(1.02 1)">A</text><text class="cls-7" transform="translate(121.51 491.1) scale(1.02 1)">U</text><text class="cls-9" transform="translate(126.96 511.72) scale(1.02 1)">C</text><text class="cls-10" transform="translate(131.98 532.33) scale(1.02 1)">G</text><text class="cls-8" transform="translate(137.19 552.95) scale(1.02 1)">A</text><text class="cls-7" transform="translate(650.28 449.87) scale(1.02 1)">U</text><text class="cls-8" transform="translate(676.43 470.49) scale(1.02 1)">A</text><text class="cls-7" transform="translate(692.16 491.1) scale(1.02 1)">U</text><text class="cls-9" transform="translate(681.91 511.72) scale(1.02 1)">C</text><text class="cls-10" transform="translate(676.46 532.33) scale(1.02 1)">G</text><text class="cls-8" transform="translate(671.19 552.95) scale(1.02 1)">A</text><path class="cls-11" d="M931,1512.83l-24,.27-34-4.21-5.09-3c-.57-1.5-.73-3.52-1.81-4.4a99.59,99.59,0,0,0-10.91-7.63c-16.67-10.1-33.41-20.09-50.12-30.11.81-2.28,1.63-4.55,2.44-6.83-2.53-.72-5-1.83-7.61-2-1.57-.12-3.23,1.19-4.86,1.86l-7-4,4.93-5.22c-4.36-1.58-8.28-4.36-11.94.22l-10-6c4.54-3,8-8.87,15-4.74,1.28.75,4-.54,5.89-1.32,2.93-1.2,4.78-.34,6,2.38,2,4.59,3.47,4.92,6.91,1.29a30.62,30.62,0,0,0,2.8-3.84,61.19,61.19,0,0,0,6.8-1.14c.33-.09.53-2.53.27-2.63-2.25-.93-4.61-1.58-7.18-2.38.08-.17.77-.92.69-1.57-.68-5.23,1.13-9.09,5.22-12.53,1.5-1.25,1.65-4.45,1.86-6.81.19-2.18-.36-4.42-.56-6.63-.39-4.14.73-7.87-3.61-11.84-3.86-3.53-6.87-6.87-12.26-7.37-1-.1-2-1.11-3-1.6-2.28-1.12-4.58-2.2-6.89-3.27s-6.27,2.23-6.5-3.33c-.1-2.67-1.65-5.29-2.54-7.93l10.84-7,19.24,7.06c2.57,7.62,4.43,8.16,11,3.17l10.23,3a8.38,8.38,0,0,0,1-1.63c3.87-13.68,7.77-27.35,11.44-41.08.34-1.27-.43-3.24-1.32-4.39q-9.4-12.2-19.12-24.13a35,35,0,0,0-4.23-3.81l2-8c3.74-1.36,7.5-2.68,11.17-4.2.28-.12-.09-1.76-.15-2.69l1.17-.35c3.37.73,7.31.6,10,2.35,11.6,7.43,22.47,5.41,33.21-1.49,4.56-2.93,8.71-3.51,12.49,1.12l-7,4c2.68,4.49,6,3.61,9.47,2.07,1.89-.82,4-3.21,5.65.33-1,1.72-1.84,3.51-2.92,5.15-10.23,15.56-20.56,31.05-30.73,46.65-3.91,6-7.47,12.21-11.19,18.33l.88.85,52.34-23.09-5.62,13.71c-1,1.53-2.05,3-2.91,4.58-5.21,9.63-10.74,19.12-15.44,29-4.61,9.69-8.35,19.79-12.48,29.71q-3,8-6,15.94c-2.58,5.75-5.08,11.53-7.78,17.22-3.3,7-3.85,13.52,1.46,19.94,2.72,3.29,4,8.52,7.32,10.43,10.64,6.09,21.93,11,33,16.44,1.45.77,2.87,1.59,4.34,2.32Q916.16,1505.49,931,1512.83ZM826.27,1407.27c-5.52,7.63-6.6,12.44-3.74,16.71,4.33,6.47,9.41,7.48,20.22,4C843,1413.92,840,1410.19,826.27,1407.27Z" transform="translate(-403.45 -1025.62)"/><path class="cls-12" d="M771,1441.81l10,6,7,5,7,4,10,7c16.71,10,33.45,20,50.12,30.11a99.59,99.59,0,0,1,10.91,7.63c1.08.88,1.24,2.9,1.81,4.4-9-3.94-17.9-8-26.93-11.76a12.15,12.15,0,0,0-6.19-.92c-10.17,1.59-20.27,3.69-30.46,5.13a11.68,11.68,0,0,1-7.64-1.94c-10-7.13-19.74-14.69-29.66-22-2.57-1.88-5.45-3.33-9.31-5.64a31.88,31.88,0,0,0,1.13,4.38c6.5,13.76,12.85,27.61,19.71,41.2,2.18,4.31,2.39,7.61-1,11.06-9.35,9.55-10.93,20.41-5.92,32.67,1.43,3.5,1.76,7.46,2.72,11.81l-18-5.46-11.16,28.16-23.19-5a74.34,74.34,0,0,1,2.84-8.42c8.57-18,17.35-35.93,25.8-54a9.3,9.3,0,0,0,0-6.9c-7.65-16.79-15.74-33.39-23.39-50.18-5-11-9.52-22.24-14.25-33.38l4-18,7-31.9c1.63-7.18,3.29-14.35,4.85-21.55a3.15,3.15,0,0,0-.41-2.34c-6-7.78-12.06-15.51-18.12-23.24l-4.35-7.92a10.26,10.26,0,0,1,3.1-.76c6.31.5,12.61,1.15,18.91,1.75,3.21,3.7,6.1,7.74,9.7,11,3.38,3.09,7.5,5.37,11.3,8-1.86,9.07-3.88,18.11-5.52,27.22-1.35,7.53-1.55,14.76,2.44,22.09,4.74,8.72,8.18,18.15,12.1,27.31C760.81,1432.87,763.45,1439.39,771,1441.81Z" transform="translate(-403.45 -1025.62)"/><path class="cls-13" d="M899.85,1352.53l5.63-13.71c-1.24-2.87-2-6.06-3.81-8.55-6.12-8.53-3.82-15.64,2.37-23.07,8.07-9.69,15.38-20,23.22-29.9,2-2.53,1.69-4.06-.28-6.38-5.06-5.93-9.73-12.19-14.71-18.19-3.9-4.7-8-9.22-12.06-13.82-3.77-2.89-7.49-5.86-11.34-8.67-5.3-3.86-10.7-7.6-16-11.4l11-2,21.36,12.92c2.11,2.55,4.23,5.08,6.32,7.64,8.45,10.36,16,21.38,27.91,28.66,6.21,3.81,11.64,3.12,17.73,1.71l19.87-2.14,17-.73-19,12.73c-.59,1-1.51,2-1.71,3.13-1,5.37,2.06,8.87,5.87,12l8,10.83c-3.41,11.67-6.75,23.37-10.27,35-1.38,4.53-3.18,8.93-4.78,13.39-10.67,9-21.31,18-32,26.93a9.57,9.57,0,0,1-4.46,1.89c-11.65,1.78-23.31,3.51-35,5-3.67.49-6.43,1.77-8.63,5-6.53,9.43-13.34,18.66-20,28H871c1.52-4.37,3.07-8.73,4.55-13.11,2.47-7.36,4.57-15,10-20.76A51.68,51.68,0,0,0,899.85,1352.53Zm35.61-29.6c-7,1.44-7.44,2.45-3.23,5.9Z" transform="translate(-403.45 -1025.62)"/><path class="cls-14" d="M975,1277.66l19-12.73c8.25.06,16.54-.32,24.75.31,6.67.51,14.34,9.07,15.22,15.77.49,3.74.83,7.49,1.27,11.62h-8.71l-.47,1a59.37,59.37,0,0,1,5.78,3.8,21,21,0,0,1,2.91,3.71q-2.46,4.27-4.91,8.55c-2.71,1.63-5.69,2.94-8,5a14.35,14.35,0,0,0-4.34,6.35c-2.38,8.43-1.73,16.3,5.13,22.92,2,2,4.45,5.12,4.25,7.52-1.06,12.87.18,26.72-12,35.94-1.14.86-1.83,2.3-2.73,3.47-14.28,10.57-19.68,25.91-22.06,42.51-.65,4.53,1.16,9.44,2,14.14.65,3.6,1.56,7.14,2.36,10.7-6.58,0-12.44-1.88-17.24-6.53.94-6.17,2.21-12.3,2.75-18.5,1.07-12.27,3.92-23.9,11-34.16a117,117,0,0,1,8.28-10.54c5-5.72,10.16-11.27,15.26-16.89,1.2-.91,3.2-1.63,3.45-2.76,1.11-4.83,1.82-9.77,2.45-14.69.57-4.39-7.32-13.69-11.58-12.87-6,1.17-11.86,3.58-17.78,5.46-2,1.64-4.11,4.73-6,4.64-6.38-.31-9.62,3.7-13.15,7.67-5.07,2.85-10.72,5.24-9.93,12.68-.49-1.43-1-2.86-1.59-4.68-2.82,2.43-5.76,4.23-7.73,6.79-5.45,7-12.86,10.15-21.17,11.87-3.24.66-6.59,1-9.67,2.14-6.32,2.26-13.46,3.71-18.46,7.73-5.48,4.41-8.92,11.36-13.24,17.2l-5.86,9.35a14.94,14.94,0,0,1-1.3,3.18c-2.74,3.89-2.37,7.27,1.18,10.49,4.89,4.44,9.53,9.17,14.54,13.48,1.8,1.55,4.31,2.32,6.59,3.19.35.13,1.22-1.1,1.86-1.7,1.43,1.34,1.84,5.23,5.08,2,1.64,4.58,5.53,3.57,9,3.63l11.52,3c-1.94,3.68-3.64,6.36-4.83,9.25-4.42,10.75.22,17,11.54,15.07,11-1.89,21.79-4.6,32.42,1.11,12.27,5.63,24,3.79,33.82-5.28.38,2.41.64,4.83,1.16,7.2a10,10,0,0,1-3.21,10.06,14.49,14.49,0,0,0-2.71,1.14c-10.08,6.71-20.54,7.91-32.17,3.88-12.22-4.23-24.83-7.69-38-4.66-5.07,1.17-8.81-.11-11.3-4.67-3.6-6.6-9-8.15-15.89-6a16.93,16.93,0,0,1-2.45.41,15.23,15.23,0,0,1-13.24-9.08c-7.14-14.92-13.75-30.1-20.57-45.17-1.44-5.7,3.16-9.34,4.78-14,6.7-9.3,13.51-18.53,20-28,2.2-3.18,5-4.46,8.63-5,11.69-1.54,23.35-3.27,35-5a9.57,9.57,0,0,0,4.46-1.89c10.74-8.91,21.38-17.94,32-26.93,10.45-5,20.68-10.52,31.45-14.64,5.13-2,7.62-4.47,8.19-9.54.2-1.81.94-3.66.7-5.39-.31-2.35-.62-5.8-2.15-6.7-7.49-4.43-15.39-8.16-23.14-12.13l-8-10.83c5.26,1,10.51,1.88,15.76,2.84,9.64,1.77,17.39-5.89,14.21-14.35-.7-1.84-3.34-4.26-4.94-4.15-2.1.15-4.62,2.14-5.89,4.05-1.17,1.75-.7,4.51-1.35,6.71-.4,1.38-1.28,3.32-2.38,3.69C985.39,1294.58,975.66,1287.57,975,1277.66Zm42.8,10.29-1.11-.08v28.69l1.11,0Zm8.27-9.5-1.4.89v9.25l1.89.51c.81-2,2.25-4,2.25-5.95C1028.81,1281.58,1027.05,1280,1026.07,1278.45Z" transform="translate(-403.45 -1025.62)"/><path class="cls-15" d="M745.21,1592.63l11.16-28.16,18,5.46c-1-4.35-1.29-8.31-2.72-11.81-5-12.26-3.43-23.12,5.92-32.67,3.38-3.45,3.17-6.75,1-11.06-6.86-13.59-13.21-27.44-19.71-41.2a31.88,31.88,0,0,1-1.13-4.38c3.86,2.31,6.74,3.76,9.31,5.64,9.92,7.28,19.63,14.84,29.66,22a11.68,11.68,0,0,0,7.64,1.94c10.19-1.44,20.29-3.54,30.46-5.13a12.15,12.15,0,0,1,6.19.92c9,3.79,18,7.82,26.93,11.76l5.09,3c-1.47.72-2.88,1.55-4.4,2.13-8.2,3.12-16.33,6.47-24.67,9.17-4.7,1.52-7.6,4.5-9.8,8.52q-20.12,36.6-40.16,73.22-20.23-3.78-40.46-7.57C750.71,1593.84,748,1593.21,745.21,1592.63Z" transform="translate(-403.45 -1025.62)"/><path class="cls-16" d="M872.82,1218.84c5.35,3.8,10.75,7.54,16,11.4,3.85,2.81,7.57,5.78,11.34,8.67-.29,12.2-3.84,25,6.27,35.4.63.65.27,3-.43,4.1-2.82,4.28-5.94,8.36-9,12.52-1.67-3.54-3.76-1.15-5.65-.33-3.5,1.54-6.79,2.42-9.47-2.07l7-4L892,1278q-9.48-10.23-18.92-20.45c-7.25-7.7-27.23-8-34.79-.48a3.36,3.36,0,0,0-.66.75l-14.51,27.45,1.39,1,7.5-3.35c.06.93.43,2.57.15,2.69-3.67,1.52-7.43,2.84-11.17,4.2-2.92-1.12-5.86-2.2-8.76-3.39q-19.46-8-38.86-16.07l-5.38,6.46q-3-11.46-6-22.91c2.42-5.19,4.82-10.39,7.26-15.57,1.51-3.22,3.06-6.41,4.6-9.61,14.5-3.32,29-6.68,43.5-10,9.21-2.07,18.43-4.1,27.68-6a14.59,14.59,0,0,1,6.24.12C858.5,1214.72,865.64,1216.84,872.82,1218.84Zm20.93,35.91c-.57-11.73-3.71-17.13-10.58-19.93-6.12-2.49-10.95-1.18-14.59,3.69C872.34,1251,881.74,1254.47,893.75,1254.75Z" transform="translate(-403.45 -1025.62)"/><path class="cls-17" d="M717,1416.73q-2,9-4,18c-5.42,5.83-4.18,11.94-1.3,18.51,8.29,18.85,16.21,37.85,24.45,56.72,3.48,8,3.61,15.24-.7,23.27-8,14.92-15.05,30.37-22.48,45.6-.51,1-1.54,2.41-1.22,3.14,1.57,3.65-1.46,2.28-2.77,2.78-3.66-4.47-7.4-8.88-11-13.42q-17.94-22.71-35.75-45.51c-1.53-1.95-2.81-4.1-4.21-6.15a28,28,0,0,0,2.69-3.51c10.43-19.44,20.52-39.06,31.3-58.3C699.9,1443.92,708.65,1430.44,717,1416.73Z" transform="translate(-403.45 -1025.62)"/><path class="cls-18" d="M793.93,1601.93q20.07-36.62,40.16-73.22c2.2-4,5.1-7,9.8-8.52,8.34-2.7,16.47-6,24.67-9.17,1.52-.58,2.93-1.41,4.4-2.13l34,4.21c-5.71,4.25-11.42,8.48-17.11,12.74-1.71,1.28-3.37,2.63-5,4-1.36,1.82-3,3.49-4.05,5.49q-13.59,26.87-27,53.86c-2.72,5.47-5.22,11-7.83,16.57-1.72.35-3.48,1.13-5.16,1-14.87-1.23-29.73-2.62-44.59-4A10.12,10.12,0,0,1,793.93,1601.93Z" transform="translate(-403.45 -1025.62)"/><path class="cls-19" d="M717,1416.73c-8.35,13.71-17.1,27.19-25,41.18-10.78,19.24-20.87,38.86-31.3,58.3a28,28,0,0,1-2.69,3.51l-5.07-5.9a27.17,27.17,0,0,0,1-5.1c.09-11.34-.09-22.67.06-34,.17-12.8.69-25.59.83-38.38,0-4.54-.61-9.09-.95-13.63l10.66-15c.26.39.75.77.74,1.15q-.64,37.17-1.37,74.32c-.07,4.18,0,8.37,0,13.49,4.59-8.75,8.71-16.48,12.66-24.3a8.42,8.42,0,0,0,.63-4.21c-1.38-18.35-4.25-36.59-3.42-55.11.26-5.69-1-11.44-1.63-17.16l9.7-14.21c.36,2.45.93,4.89,1.05,7.35.76,16.09,1.37,32.18,2.15,48.26.21,4.17.84,8.31,1.36,13.32,2-3.83,3.08-7.28,5.21-9.91,4-5,3.5-10.16,2.62-15.92-1.76-11.62-2.83-23.34-4.38-35-.71-5.35-1.88-10.63-2.84-16l1.11-2,26.82,1c-.11,6,5.29,4.88,9,6.94v5Z" transform="translate(-403.45 -1025.62)"/><path class="cls-20" d="M977.2,1451.72c4.8,4.65,10.66,6.55,17.24,6.53.45,1.56.91,3.11,1.36,4.67-.66,2.8-4.62,4.87-1.84,8.43l-20.1,1.37h-7.47c-2.9-7.13-5.61-13.82-8.33-20.52l-1.89.33-2.07,20.91,23,7.26-.08,0,10.42,3.92-.14,1.33-15.58-1c-10.63-5.71-21.46-3-32.42-1.11-11.32,2-16-4.32-11.54-15.07,1.19-2.89,2.89-5.57,4.83-9.25l-11.52-3-4.12-6.8c-1.86-6.65-3.53-13.37-5.71-19.92a11.47,11.47,0,0,0-4.27-5.44c-5.46-3.68-11.2-6.92-16.83-10.33,5.93-4,12.57-5.16,19.55-5.07l18.18,8.3,6.81,5.78,12.47,26.12c-1.36-10.43-4.62-20-11.14-28.33l-7.61-7.87c13.68-3.37,22.3.17,30.77,11.87l6.9,11q3.35,5,6.7,9.94Z" transform="translate(-403.45 -1025.62)"/><path class="cls-21" d="M673.11,1309.93a4.27,4.27,0,0,1-.29.94c-6.58,11.29-6.57,11.23-19,7.84-6.21-1.69-12.5-3.11-18.75-4.65,2.43-4.33,4.88-8.64,7.29-13,6.77-12.17,13.43-24.39,20.34-36.47a16.92,16.92,0,0,1,5.33-5.73q15.29-9.75,30.92-19a10.51,10.51,0,0,1,5.72-1c16.12,1.18,32.23,2.52,48.35,3.8l6.42.48-20.1,44.56-5.05-6c-5-7.82-10.12-15.61-15.07-23.47-4.28-6.8-6.32-7.32-13.17-3.24-11.26,6.72-22.4,13.68-33.93,19.92-4.65,2.52-5.84,5.29-4.11,9.88.23,1.45.39,2.92.69,4.36Q670.88,1299.57,673.11,1309.93Z" transform="translate(-403.45 -1025.62)"/><path class="cls-22" d="M753,1242.76c-16.12-1.28-32.23-2.62-48.35-3.8a10.51,10.51,0,0,0-5.72,1q-15.6,9.22-30.92,19a16.92,16.92,0,0,0-5.33,5.73c-6.91,12.08-13.57,24.3-20.34,36.47-2.41,4.34-4.86,8.65-7.29,13-4.76,4.64-9.31,9.52-14.39,13.78-1.72,1.44-5.1,2.26-7.11,1.57-1.46-.5-2.55-3.9-2.68-6.08-.34-5.64,0-11.33,0-17a12.33,12.33,0,0,1,6.93-11.78c8.32-4.55,16.65-9.09,24.85-13.86a22.19,22.19,0,0,0,5.33-4.92,18,18,0,0,0,3.14-5.08c7.91-20.3,25.58-29.72,43.32-39a8.67,8.67,0,0,1,3.29-1q25.15-2,50.33-3.78Q750.52,1234.8,753,1242.76Z" transform="translate(-403.45 -1025.62)"/><path class="cls-23" d="M753,1242.76q-2.5-8-5-15.93c2.58-2.79,5.44-2.66,9-1.66,5.51,1.57,11.23,2.38,16.87,3.52-1.54,3.2-3.09,6.39-4.6,9.61-2.44,5.18-4.84,10.38-7.26,15.57-2.07,3.74-4.31,7.41-6.19,11.26-4.67,9.53-9.18,19.14-13.75,28.72-1.54-3.69-3.9-1.68-4.29.1-.77,3.46-.43,7.17-.56,10.78l1.14,0q-5.16,13-10.33,26.07c-6.3-.6-12.6-1.25-18.91-1.75a10.26,10.26,0,0,0-3.1.76c-3.58-5.94-9.15-8.81-15.73-9.92-5.29-.9-8.41-4.14-10.37-8.84,0-.37.05-.74.08-1.11,10.58.19,21.16.51,31.74.44a6.25,6.25,0,0,0,4.65-2.91c3.14-6.61,6-13.4,3.82-21.06a14.41,14.41,0,0,1-.05-4l14.14-.64,5.05,6,20.1-44.56Z" transform="translate(-403.45 -1025.62)"/><path class="cls-24" d="M654,1422.71c.34,4.54,1,9.09.95,13.63-.14,12.79-.66,25.58-.83,38.38-.15,11.33,0,22.66-.06,34a27.17,27.17,0,0,1-1,5.1c-10.58-13.49-21.24-26.91-31.67-40.51-4-5.18-3.46-7.33.7-12.26C632.74,1448.33,643.33,1435.5,654,1422.71Z" transform="translate(-403.45 -1025.62)"/><path class="cls-25" d="M901,1487a16.93,16.93,0,0,0,2.45-.41c6.87-2.17,12.29-.62,15.89,6,2.49,4.56,6.23,5.84,11.3,4.67,13.18-3,25.79.43,38,4.66,11.63,4,22.09,2.83,32.17-3.88a14.49,14.49,0,0,1,2.71-1.14c-2,6.28-7.89,9.07-12,13.49-7.92,8.5-17.59,9-28.28,10.06-12.15,1.21-22-3.12-32.22-7.59q-14.84-7.36-29.67-14.72c-1.47-.73-2.89-1.55-4.34-2.32Q899,1491.38,901,1487Z" transform="translate(-403.45 -1025.62)"/><path class="cls-26" d="M846,1605.71c2.61-5.53,5.11-11.1,7.83-16.57q13.41-27,27-53.86c1-2,2.69-3.67,4.05-5.49l13.1,52.58Z" transform="translate(-403.45 -1025.62)"/><path class="cls-27" d="M709,1584.8c1.31-.5,4.34.87,2.77-2.78-.32-.73.71-2.11,1.22-3.14,7.43-15.23,14.47-30.68,22.48-45.6,4.31-8,4.18-15.3.7-23.27-8.24-18.87-16.16-37.87-24.45-56.72-2.88-6.57-4.12-12.68,1.3-18.51,4.73,11.14,9.23,22.37,14.25,33.38,7.65,16.79,15.74,33.39,23.39,50.18a9.3,9.3,0,0,1,0,6.9c-8.45,18.08-17.23,36-25.8,54a74.34,74.34,0,0,0-2.84,8.42Z" transform="translate(-403.45 -1025.62)"/><path class="cls-28" d="M905.18,1229.79q-10.7-6.45-21.37-12.92c15.34-1.35,30.66-2.81,44.82,5.65,5.68,3.39,11.65,6.29,17.49,9.42-4.16,6.93-.58,13.1,1.91,19.37l3,12.41A40.38,40.38,0,0,1,931.84,1251c-3.36-4.1-7-8.13-9.59-12.69C918.29,1231.46,913,1228.32,905.18,1229.79Z" transform="translate(-403.45 -1025.62)"/><path class="cls-29" d="M672.23,1395.87c.59,5.72,1.89,11.47,1.63,17.16-.83,18.52,2,36.76,3.42,55.11a8.42,8.42,0,0,1-.63,4.21c-3.95,7.82-8.07,15.55-12.66,24.3,0-5.12-.06-9.31,0-13.49q.68-37.15,1.37-74.32c0-.38-.48-.76-.74-1.15Q668.43,1401.78,672.23,1395.87Z" transform="translate(-403.45 -1025.62)"/><path class="cls-30" d="M1012.13,1390.9c.9-1.17,1.59-2.61,2.73-3.47,12.22-9.22,11-23.07,12-35.94.2-2.4-2.22-5.56-4.25-7.52-6.86-6.62-7.51-14.49-5.13-22.92a14.35,14.35,0,0,1,4.34-6.35c2.34-2,5.32-3.36,8-5,.54,2,1.18,4,1.6,6,2.64,12.93,4.72,25.69,0,38.83-2.28,6.38-2.33,13.55-3.39,20.37-1.94,3.06-3.42,6.6-5.94,9.07C1019.3,1386.79,1015.51,1388.64,1012.13,1390.9Z" transform="translate(-403.45 -1025.62)"/><path class="cls-31" d="M724,1384.83v-5c-3.72-2.06-9.12-1-9-6.94l8.17-5.33c-8.59-.79-16.7-.72-24.81-.84a32,32,0,0,1-5.63-1.1l7.29-10.8h15.26l-9.56-8q2.31-4.53,4.61-9c6.06,7.73,12.13,15.46,18.12,23.24a3.15,3.15,0,0,1,.41,2.34C727.33,1370.48,725.67,1377.65,724,1384.83Z" transform="translate(-403.45 -1025.62)"/><path class="cls-32" d="M687.1,1373.81c1,5.32,2.13,10.6,2.84,16,1.55,11.66,2.62,23.38,4.38,35,.88,5.76,1.41,11-2.62,15.92-2.13,2.63-3.25,6.08-5.21,9.91-.52-5-1.15-9.15-1.36-13.32-.78-16.08-1.39-32.17-2.15-48.26-.12-2.46-.69-4.9-1.05-7.35Z" transform="translate(-403.45 -1025.62)"/><path class="cls-33" d="M994,1471.35c-2.78-3.56,1.18-5.63,1.84-8.43l11.31-12.92a40.49,40.49,0,0,1-3,26.65c-1,.14-2.3-.07-2.82.49-3.72,4-8.52,3.74-13.33,3.64-3.63-.08-7.26-.08-10.9-.11l.08,0-1.1-1c.34-1.92.67-3.84,1-5.76,3.09-.4,6.48-2,8.34,2.93,1.92-4.26,4.44-4,7.4-1.27Z" transform="translate(-403.45 -1025.62)"/><path class="cls-34" d="M951.06,1263.72l-3-12.4,9.73,5.74,6.37-9.5c7.63,3.65,11,10.31,12.87,18.1l-19.88,2.14Z" transform="translate(-403.45 -1025.62)"/><path class="cls-35" d="M680,1309.91c0,.37,0,.74-.08,1.11-1.17-1.44-2.35-2.87-3.72-4.54l-3.08,3.45q-2.22-10.37-4.41-20.72c-.3-1.44-.46-2.91-.69-4.36,3.79-.23,7.6-.81,11.35-.55a9.94,9.94,0,0,1,6.23,2.71c.94,1,.48,3.82,0,5.62C683.87,1298.44,681.87,1304.16,680,1309.91Z" transform="translate(-403.45 -1025.62)"/><path class="cls-36" d="M964.13,1247.56l-6.37,9.5-9.73-5.74c-2.49-6.28-6.07-12.45-1.91-19.38,3.72,1.83,7.43,3.68,11.16,5.5A11.51,11.51,0,0,1,964.13,1247.56Z" transform="translate(-403.45 -1025.62)"/><path class="cls-37" d="M1028.1,1374.92c1.06-6.82,1.11-14,3.39-20.37,4.72-13.14,2.64-25.9,0-38.83-.42-2-1.06-4-1.6-6q2.44-4.28,4.91-8.55c1.73,9.8,3.64,19.57,5.09,29.41a21.18,21.18,0,0,1-.84,8.75C1035.55,1351.23,1031.78,1363.06,1028.1,1374.92Z" transform="translate(-403.45 -1025.62)"/><path class="cls-38" d="M692.76,1365.58a32,32,0,0,0,5.63,1.1c8.11.12,16.22,0,24.81.84l-8.17,5.33-26.82-1Z" transform="translate(-403.45 -1025.62)"/><path class="cls-39" d="M977,1480.67c3.64,0,7.27,0,10.9.11,4.81.1,9.61.4,13.33-3.64.52-.56,1.86-.35,2.82-.49l1.47,3c-9.79,9.06-21.55,10.9-33.82,5.27l15.58,1,.14-1.33Z" transform="translate(-403.45 -1025.62)"/><path class="cls-40" d="M705.75,1346.75l9.56,8H700.05Z" transform="translate(-403.45 -1025.62)"/><path class="cls-41" d="M771,1441.81c-7.55-2.42-10.19-8.94-13-15.41-3.92-9.16-7.36-18.59-12.1-27.31-4-7.33-3.79-14.56-2.44-22.09,1.64-9.11,3.66-18.15,5.52-27.22.5-1,1.45-2,1.43-3-.24-12,7.34-16.93,17.51-19.58.46-.12.84-.76,1.25-.75,1.9,0,3.8.2,5.7.33-1.28,6.65-2.68,13.28-3.77,20-.49,3-.76,6.34,4,6.17-3.55,5.32.41,9.84,1,15l3.8-1.27c.89,2.64,2.44,5.26,2.54,7.93.23,5.56,4.32,2.33,6.5,3.33s4.61,2.15,6.89,3.27c1,.49,1.94,1.5,3,1.6,5.39.5,8.4,3.84,12.26,7.37,4.34,4,3.22,7.7,3.61,11.84.2,2.21.75,4.45.56,6.63-.21,2.36-.36,5.56-1.86,6.81-4.09,3.44-5.9,7.3-5.22,12.53.08.65-.61,1.4-.69,1.57,2.57.8,4.93,1.45,7.18,2.38.26.1.06,2.54-.27,2.63a61.19,61.19,0,0,1-6.8,1.14,30.62,30.62,0,0,1-2.8,3.84c-3.44,3.63-4.9,3.3-6.91-1.29-1.19-2.72-3-3.58-6-2.38-1.88.78-4.61,2.07-5.89,1.32C779,1432.94,775.54,1438.84,771,1441.81Z" transform="translate(-403.45 -1025.62)"/><path class="cls-42" d="M775.13,1352.87c-4.75.17-4.48-3.19-4-6.17,1.09-6.68,2.49-13.31,3.77-20,2.9-3.1,5.29-7,8.78-9.13,11.57-7,23.53-13.29,35.34-19.86a35,35,0,0,1,4.23,3.81q9.69,12,19.12,24.13c.89,1.15,1.66,3.12,1.32,4.39-3.67,13.73-7.57,27.4-11.44,41.08a8.38,8.38,0,0,1-1,1.63l-10.23-3-11-3.17-19.24-7.06c.74-5.07,1.83-10.11,2.12-15.21.27-4.88-1.81-6.06-5.6-3.08C782.94,1344.76,779.17,1349,775.13,1352.87Z" transform="translate(-403.45 -1025.62)"/><path class="cls-43" d="M819,1297.75c-11.81,6.57-23.77,12.88-35.34,19.86-3.49,2.11-5.88,6-8.78,9.13-1.9-.13-3.8-.3-5.7-.33-.41,0-.79.63-1.25.75-10.17,2.65-17.75,7.56-17.51,19.58,0,1-.93,2-1.43,3-3.8-2.63-7.92-4.91-11.3-8-3.6-3.27-6.49-7.31-9.7-11q5.18-13,10.33-26.07l-1.14,0c.13-3.61-.21-7.32.56-10.78.39-1.78,2.75-3.79,4.29-.1q-.63,4.5-1.27,9a24.5,24.5,0,0,0,9.39-5.25c6.71-6.26,14.36-11.77,17.83-20.82l5.38-6.46q19.41,8,38.86,16.07c2.9,1.19,5.84,2.27,8.76,3.39Z" transform="translate(-403.45 -1025.62)"/><path class="cls-44" d="M897.09,1290.93c3-4.16,6.14-8.24,9-12.52.7-1.06,1.06-3.45.43-4.1-10.11-10.44-6.56-23.2-6.27-35.4,4,4.6,8.16,9.12,12.06,13.82,5,6,9.65,12.26,14.71,18.19,2,2.32,2.28,3.85.28,6.38-7.84,9.89-15.15,20.21-23.22,29.9-6.19,7.43-8.49,14.54-2.37,23.07,1.79,2.49,2.57,5.68,3.81,8.55l-52.35,23.09-.88-.85c3.72-6.12,7.28-12.34,11.19-18.33,10.17-15.6,20.5-31.09,30.73-46.65C895.25,1294.44,896.13,1292.65,897.09,1290.93Z" transform="translate(-403.45 -1025.62)"/><path class="cls-20" d="M901,1487q-2,4.4-4,8.8c-11-5.4-22.33-10.35-33-16.44-3.33-1.91-4.6-7.14-7.32-10.43-5.31-6.42-4.76-13-1.46-19.94,2.7-5.69,5.2-11.47,7.78-17.22l2.32-1.36,1.82,2.34c6.82,15.07,13.43,30.25,20.57,45.17A15.23,15.23,0,0,0,901,1487Z" transform="translate(-403.45 -1025.62)"/><path class="cls-45" d="M873.1,1257.52q9.45,10.21,18.92,20.45l-3.09,6.55c-3.78-4.63-7.93-4-12.49-1.12-10.74,6.9-21.61,8.92-33.21,1.49-2.72-1.75-6.66-1.62-10-2.35,2.28-2.73,4.41-5.61,6.89-8.16C849.17,1265.05,859.24,1257.55,873.1,1257.52Zm12.24,18.69c-5.67-5.06-10.46-9.5-15.49-13.64-.88-.72-2.84-.42-4.23-.17-9.51,1.74-14.76,9.26-21.54,15.35C858.2,1287.71,870.92,1280.53,885.34,1276.21Z" transform="translate(-403.45 -1025.62)"/><path class="cls-46" d="M873.1,1257.52c-13.86,0-23.93,7.53-33,16.86-2.48,2.55-4.61,5.43-6.89,8.16l-1.17.35-7.5,3.35-1.39-1,14.51-27.45a3.36,3.36,0,0,1,.66-.75C845.87,1249.54,865.85,1249.82,873.1,1257.52Z" transform="translate(-403.45 -1025.62)"/><path class="cls-47" d="M826.27,1407.27c13.75,2.92,16.71,6.65,16.48,20.72-10.81,3.47-15.89,2.46-20.22-4C819.67,1419.71,820.75,1414.9,826.27,1407.27Z" transform="translate(-403.45 -1025.62)"/><path class="cls-48" d="M775.13,1352.87c4-3.88,7.81-8.11,12.19-11.56,3.79-3,5.87-1.8,5.6,3.08-.29,5.1-1.38,10.14-2.12,15.21l-10.84,7-3.8,1.27C775.54,1362.71,771.58,1358.19,775.13,1352.87Z" transform="translate(-403.45 -1025.62)"/><path class="cls-49" d="M899.85,1352.53a51.68,51.68,0,0,1-14.22,32.35c-5.48,5.81-7.58,13.4-10,20.76-1.48,4.38-3,8.74-4.55,13.11l-2.26,1.89.25-4.82c4.13-9.92,7.87-20,12.48-29.71,4.7-9.88,10.23-19.37,15.44-29C897.8,1355.52,898.88,1354.06,899.85,1352.53Z" transform="translate(-403.45 -1025.62)"/><path class="cls-41" d="M805,1463.77l-10-7c1.63-.67,3.29-2,4.86-1.86,2.57.18,5.08,1.29,7.61,2C806.66,1459.22,805.84,1461.49,805,1463.77Z" transform="translate(-403.45 -1025.62)"/><path class="cls-41" d="M788,1452.79l-7-5c3.66-4.58,7.58-1.8,11.94-.22Z" transform="translate(-403.45 -1025.62)"/><path class="cls-50" d="M869,1415.82c-.07,1.45-.15,2.9-.25,4.82l2.26-1.89H872c-1.62,4.65-6.22,8.29-4.78,14l-1.82-2.34-2.32,1.36Q866,1423.8,869,1415.82Z" transform="translate(-403.45 -1025.62)"/><path class="cls-41" d="M810,1366.66l11,3.17C814.47,1374.82,812.61,1374.28,810,1366.66Z" transform="translate(-403.45 -1025.62)"/><path class="cls-51" d="M987.18,1303.57c7.75,4,15.65,7.7,23.14,12.13,1.53.9,1.84,4.35,2.15,6.7.24,1.73-.5,3.58-.7,5.39-.57,5.07-3.06,7.58-8.19,9.54-10.77,4.12-21,9.67-31.45,14.64,1.6-4.46,3.4-8.86,4.78-13.39C980.43,1326.94,983.77,1315.24,987.18,1303.57Z" transform="translate(-403.45 -1025.62)"/><path class="cls-52" d="M951.06,1263.72l6.06,4.08c-6.08,1.41-11.51,2.1-17.72-1.71-11.91-7.28-19.46-18.3-27.91-28.66-2.09-2.56-4.21-5.09-6.32-7.64,7.84-1.47,13.12,1.67,17.08,8.48,2.64,4.56,6.23,8.59,9.59,12.69A40.38,40.38,0,0,0,951.06,1263.72Z" transform="translate(-403.45 -1025.62)"/><path class="cls-53" d="M975,1277.66c.66,9.91,10.39,16.92,19.57,13.87,1.1-.37,2-2.31,2.38-3.69.65-2.2.18-5,1.35-6.71,1.27-1.91,3.79-3.9,5.89-4.05,1.6-.11,4.24,2.31,4.94,4.15,3.18,8.46-4.57,16.12-14.21,14.35-5.25-1-10.5-1.89-15.76-2.84-3.81-3.08-6.85-6.58-5.87-12C973.49,1279.68,974.41,1278.7,975,1277.66Z" transform="translate(-403.45 -1025.62)"/><path class="cls-54" d="M935.46,1322.93l-3.23,5.9C928,1325.38,928.44,1324.37,935.46,1322.93Z" transform="translate(-403.45 -1025.62)"/><path class="cls-55" d="M977.2,1451.72l-4.41-6c-.22-3.82.63-8.19-4.51-9.38-.43-4.22-.85-8.36-1.26-12.51l-7.83,1c-8.47-11.7-17.09-15.24-30.77-11.87l7.61,7.87L934.7,1423l-6.81-5.78c-4.34-6.53-11.62-6.63-18.18-8.3-7-.09-13.62,1.1-19.55,5.07,0-.39-.1-.77-.14-1.16,4.32-5.84,7.76-12.79,13.24-17.2,5-4,12.14-5.47,18.46-7.73,3.08-1.1,6.43-1.48,9.67-2.14,8.31-1.72,15.72-4.85,21.17-11.87,2-2.56,4.91-4.36,7.73-6.79.62,1.82,1.1,3.25,1.59,4.68.48,2.59,1,5.18,1.43,7.76l1.5.16q3.5-10.31,7-20.6c3.53-4,6.77-8,13.15-7.67,1.93.09,4-3,6-4.64,1.56,2,3.11,3.94,4.79,6.09l4.59-5.16,2.66,5.86,6.1-2.84c1.83,7.2,3.58,14.06,5.32,20.91-5.1,5.62-10.28,11.17-15.26,16.89a117,117,0,0,0-8.28,10.54c-7,10.26-9.9,21.89-11,34.16C979.41,1439.42,978.14,1445.55,977.2,1451.72Z" transform="translate(-403.45 -1025.62)"/><path class="cls-56" d="M890,1412.81c0,.39.09.77.14,1.16,5.63,3.41,11.37,6.65,16.83,10.33a11.47,11.47,0,0,1,4.27,5.44c2.18,6.55,3.85,13.27,5.71,19.92l-4.86,3.17c-3.24,3.2-3.65-.69-5.08-2a11.85,11.85,0,0,1-1-2.7c-.93-8-.91-8-8.19-8.79-1-3.48-2-7-3-10.59l-8.46,3.51a50.27,50.27,0,0,0-.1-7.21c-.17-1-1.38-1.91-2.11-2.86Z" transform="translate(-403.45 -1025.62)"/><path class="cls-57" d="M1014.46,1371.63c-1.74-6.85-3.49-13.71-5.32-20.91l-6.1,2.84-2.66-5.86-4.59,5.16c-1.68-2.15-3.23-4.12-4.79-6.09,5.92-1.88,11.73-4.29,17.78-5.46,4.26-.82,12.15,8.48,11.58,12.87-.63,4.92-1.34,9.86-2.45,14.69C1017.66,1370,1015.66,1370.72,1014.46,1371.63Z" transform="translate(-403.45 -1025.62)"/><path class="cls-58" d="M884.16,1422.16c.73.95,1.94,1.82,2.11,2.86a50.27,50.27,0,0,1,.1,7.21l8.46-3.51c1,3.6,2,7.11,3,10.59,7.28.75,7.26.75,8.19,8.79a11.85,11.85,0,0,0,1,2.7c-.64.6-1.51,1.83-1.86,1.7-2.28-.87-4.79-1.64-6.59-3.19-5-4.31-9.65-9-14.54-13.48-3.55-3.22-3.92-6.6-1.18-10.49A14.94,14.94,0,0,0,884.16,1422.16Z" transform="translate(-403.45 -1025.62)"/><path class="cls-59" d="M971.81,1359.08q-3.49,10.31-7,20.6l-1.5-.16c-.48-2.58-.95-5.17-1.43-7.76C961.09,1364.32,966.74,1361.93,971.81,1359.08Z" transform="translate(-403.45 -1025.62)"/><path class="cls-60" d="M1017.8,1288v28.63l-1.11,0v-28.69Z" transform="translate(-403.45 -1025.62)"/><path class="cls-61" d="M1026.07,1278.45c1,1.57,2.74,3.13,2.74,4.7,0,2-1.44,4-2.25,5.95l-1.89-.51v-9.25Z" transform="translate(-403.45 -1025.62)"/><path class="cls-62" d="M912.11,1452.83l4.86-3.17,4.12,6.8C917.64,1456.4,913.75,1457.41,912.11,1452.83Z" transform="translate(-403.45 -1025.62)"/><path class="cls-63" d="M768,1276.78c-3.47,9-11.12,14.56-17.83,20.82a24.5,24.5,0,0,1-9.39,5.25q.65-4.5,1.27-9c4.57-9.58,9.08-19.19,13.75-28.72,1.88-3.85,4.12-7.52,6.19-11.26Q765,1265.32,768,1276.78Z" transform="translate(-403.45 -1025.62)"/><path class="cls-64" d="M893.75,1254.75c-12-.28-21.41-3.72-25.17-16.24,3.64-4.87,8.47-6.18,14.59-3.69C890,1237.62,893.18,1243,893.75,1254.75Z" transform="translate(-403.45 -1025.62)"/><path class="cls-65" d="M977,1474c-.34,1.92-.67,3.84-1,5.76l-21.92-6.31,2.07-20.91,1.89-.33c2.72,6.7,5.43,13.39,8.33,20.52h7.47Z" transform="translate(-403.45 -1025.62)"/><path class="cls-66" d="M934.7,1423l1.33-2.21c6.52,8.28,9.78,17.9,11.14,28.33Z" transform="translate(-403.45 -1025.62)"/><path class="cls-67" d="M959.19,1424.77l7.83-1-.93,12Z" transform="translate(-403.45 -1025.62)"/><path class="cls-68" d="M977,1474l-3.17-1.27,20.1-1.37-1.19,4.3c-3-2.69-5.48-3-7.4,1.27C983.51,1472,980.12,1473.59,977,1474Z" transform="translate(-403.45 -1025.62)"/><path class="cls-69" d="M966.09,1435.74l.93-12c.41,4.15.83,8.29,1.26,12.51,5.14,1.19,4.29,5.56,4.51,9.38Q969.45,1440.71,966.09,1435.74Z" transform="translate(-403.45 -1025.62)"/><path class="cls-39" d="M954.1,1473.44l21.92,6.31,1.1,1Z" transform="translate(-403.45 -1025.62)"/><path class="cls-66" d="M909.71,1408.9c6.56,1.67,13.84,1.77,18.18,8.3Z" transform="translate(-403.45 -1025.62)"/><path class="cls-70" d="M680,1309.91c1.88-5.75,3.88-11.47,5.56-17.28.52-1.8,1-4.59,0-5.62a9.94,9.94,0,0,0-6.23-2.71c-3.75-.26-7.56.32-11.35.55-1.73-4.59-.54-7.36,4.11-9.88,11.53-6.24,22.67-13.2,33.93-19.92,6.85-4.08,8.89-3.56,13.17,3.24,4.95,7.86,10,15.65,15.07,23.47l-14.14.64a14.41,14.41,0,0,0,.05,4c2.14,7.66-.68,14.45-3.82,21.06a6.25,6.25,0,0,1-4.65,2.91C701.15,1310.42,690.57,1310.1,680,1309.91Z" transform="translate(-403.45 -1025.62)"/><path class="cls-71" d="M885.34,1276.21c-14.42,4.32-27.14,11.5-41.26,1.54,6.78-6.09,12-13.61,21.54-15.35,1.39-.25,3.35-.55,4.23.17C874.88,1266.71,879.67,1271.15,885.34,1276.21Zm-20.1-1.74c1.74-2.29,3.62-3.68,3.52-4.91s-2.7-3.65-3.19-3.41a10.44,10.44,0,0,0-4.18,4C861.16,1270.56,863.3,1272.36,865.24,1274.47Z" transform="translate(-403.45 -1025.62)"/><path class="cls-72" d="M865.24,1274.47c-1.94-2.11-4.08-3.91-3.85-4.29a10.44,10.44,0,0,1,4.18-4c.49-.24,3.08,2.11,3.19,3.41S867,1272.18,865.24,1274.47Z" transform="translate(-403.45 -1025.62)"/><text class="cls-73" transform="translate(376.31 735.54) scale(1.02 1)">LR</text><text class="cls-74" transform="translate(371.31 730.36) scale(1.02 1)">LR</text></g></g></svg>